<svg width="24" height="24" viewBox="0 0 24 24" fill="none" xmlns="http://www.w3.org/2000/svg">
<g id="Frame 92">
<path id="Vector" d="M11.5 5.4C12.3998 5.4 13.2628 5.71607 13.8991 6.27868C14.5354 6.84129 14.8929 7.60435 14.8929 8.4C14.8929 8.79397 14.8051 9.18407 14.6346 9.54805C14.4641 9.91203 14.2142 10.2427 13.8991 10.5213C13.5841 10.7999 13.21 11.0209 12.7984 11.1716C12.3868 11.3224 11.9456 11.4 11.5 11.4C10.6002 11.4 9.73717 11.0839 9.10089 10.5213C8.4646 9.95871 8.10714 9.19565 8.10714 8.4C8.10714 7.60435 8.4646 6.84129 9.10089 6.27868C9.73717 5.71607 10.6002 5.4 11.5 5.4ZM11.5 0C14.0196 0 16.4359 0.884997 18.2175 2.4603C19.9991 4.03561 21 6.17218 21 8.4C21 14.7 11.5 24 11.5 24C11.5 24 2 14.7 2 8.4C2 6.17218 3.00089 4.03561 4.78249 2.4603C6.56408 0.884997 8.98044 0 11.5 0ZM11.5 2.4C9.70032 2.4 7.97434 3.03214 6.70178 4.15736C5.42921 5.28258 4.71429 6.8087 4.71429 8.4C4.71429 9.6 4.71429 12 11.5 20.052C18.2857 12 18.2857 9.6 18.2857 8.4C18.2857 6.8087 17.5708 5.28258 16.2982 4.15736C15.0257 3.03214 13.2997 2.4 11.5 2.4Z" fill="#282828"/>
</g>
</svg>
