<svg width="51" height="51" viewBox="0 0 51 51" fill="none" xmlns="http://www.w3.org/2000/svg">
<g id="Group 4">
<circle id="Ellipse 9" cx="25.208" cy="25.5" r="25" fill="#282828" fill-opacity="0.6"/>
<path id="Vector" d="M27.7504 33.746L20.4464 26.4637C20.3597 26.377 20.2982 26.2831 20.2618 26.182C20.2254 26.0808 20.2074 25.9725 20.208 25.8569C20.208 25.7413 20.2259 25.6329 20.2618 25.5318C20.2976 25.4306 20.3592 25.3367 20.4464 25.25L27.7504 17.946C27.9527 17.7437 28.2056 17.6426 28.509 17.6426C28.8124 17.6426 29.0725 17.7509 29.2892 17.9677C29.506 18.1844 29.6144 18.4373 29.6144 18.7263C29.6144 19.0152 29.506 19.2681 29.2892 19.4848L22.9172 25.8569L29.2892 32.2289C29.4915 32.4312 29.5927 32.6806 29.5927 32.9771C29.5927 33.2736 29.4843 33.5299 29.2676 33.746C29.0508 33.9628 28.798 34.0711 28.509 34.0711C28.22 34.0711 27.9672 33.9628 27.7504 33.746Z" fill="white"/>
</g>
</svg>
