<svg width="24" height="27" viewBox="0 0 24 27" fill="none" xmlns="http://www.w3.org/2000/svg">
<g id="Frame 72" clip-path="url(#clip0_623_1419)">
<path id="Vector" d="M21.3333 3.07214H15.76C15 1.04414 12.7067 0.00414136 10.6667 0.732141C9.52 1.12214 8.66667 1.98014 8.24 3.07214H2.66667C1.95942 3.07214 1.28115 3.34607 0.781048 3.83366C0.280951 4.32126 0 4.98258 0 5.67214V23.8721C0 24.5617 0.280951 25.223 0.781048 25.7106C1.28115 26.1982 1.95942 26.4721 2.66667 26.4721H21.3333C22.0406 26.4721 22.7189 26.1982 23.219 25.7106C23.719 25.223 24 24.5617 24 23.8721V5.67214C24 4.98258 23.719 4.32126 23.219 3.83366C22.7189 3.34607 22.0406 3.07214 21.3333 3.07214ZM12 3.07214C12.3536 3.07214 12.6928 3.20911 12.9428 3.4529C13.1929 3.6967 13.3333 4.02736 13.3333 4.37214C13.3333 4.71692 13.1929 5.04758 12.9428 5.29138C12.6928 5.53518 12.3536 5.67214 12 5.67214C11.6464 5.67214 11.3072 5.53518 11.0572 5.29138C10.8071 5.04758 10.6667 4.71692 10.6667 4.37214C10.6667 4.02736 10.8071 3.6967 11.0572 3.4529C11.3072 3.20911 11.6464 3.07214 12 3.07214ZM5.33333 8.27214H18.6667V5.67214H21.3333V23.8721H2.66667V5.67214H5.33333V8.27214ZM18.6667 13.4721H5.33333V10.8721H18.6667V13.4721ZM16 18.6721H5.33333V16.0721H16V18.6721Z" fill="#282828"/>
</g>
<defs>
<clipPath id="clip0_623_1419">
<rect width="24" height="26" fill="white" transform="translate(0 0.5)"/>
</clipPath>
</defs>
</svg>
