<svg width="25" height="23" viewBox="0 0 25 23" fill="none" xmlns="http://www.w3.org/2000/svg">
<path id="Vector" d="M1.12702 0.5C0.828117 0.5 0.541455 0.642984 0.330097 0.897498C0.118739 1.15201 0 1.49721 0 1.85714C0 2.21708 0.118739 2.56227 0.330097 2.81679C0.541455 3.0713 0.828117 3.21429 1.12702 3.21429H22.9161C23.215 3.21429 23.5017 3.0713 23.713 2.81679C23.9244 2.56227 24.0431 2.21708 24.0431 1.85714C24.0431 1.49721 23.9244 1.15201 23.713 0.897498C23.5017 0.642984 23.215 0.5 22.9161 0.5H1.12702ZM1.12702 6.92857C0.828117 6.92857 0.541455 7.07156 0.330097 7.32607C0.118739 7.58058 0 7.92578 0 8.28571C0 8.64565 0.118739 8.99084 0.330097 9.24536C0.541455 9.49987 0.828117 9.64286 1.12702 9.64286H22.9161C23.215 9.64286 23.5017 9.49987 23.713 9.24536C23.9244 8.99084 24.0431 8.64565 24.0431 8.28571C24.0431 7.92578 23.9244 7.58058 23.713 7.32607C23.5017 7.07156 23.215 6.92857 22.9161 6.92857H1.12702ZM0 14.7143C0 14.3544 0.118739 14.0092 0.330097 13.7546C0.541455 13.5001 0.828117 13.3571 1.12702 13.3571H22.9161C23.215 13.3571 23.5017 13.5001 23.713 13.7546C23.9244 14.0092 24.0431 14.3544 24.0431 14.7143C24.0431 15.0742 23.9244 15.4194 23.713 15.6739C23.5017 15.9284 23.215 16.0714 22.9161 16.0714H1.12702C0.828117 16.0714 0.541455 15.9284 0.330097 15.6739C0.118739 15.4194 0 15.0742 0 14.7143ZM1.12702 19.7857C0.828117 19.7857 0.541455 19.9287 0.330097 20.1832C0.118739 20.4377 0 20.7829 0 21.1429C0 21.5028 0.118739 21.848 0.330097 22.1025C0.541455 22.357 0.828117 22.5 1.12702 22.5H15.4026C15.7015 22.5 15.9882 22.357 16.1996 22.1025C16.4109 21.848 16.5297 21.5028 16.5297 21.1429C16.5297 20.7829 16.4109 20.4377 16.1996 20.1832C15.9882 19.9287 15.7015 19.7857 15.4026 19.7857H1.12702Z" fill="black"/>
</svg>
