<svg width="23" height="23" viewBox="0 0 23 23" fill="none" xmlns="http://www.w3.org/2000/svg">
<g id="Group 76">
<g id="Group 33">
<circle id="Ellipse 12" cx="11.6366" cy="11.5452" r="11.0452" fill="white"/>
<path id="Vector" d="M10.8217 15.7864C11.0411 16.0058 11.3126 16.1155 11.6364 16.1155C11.9601 16.1155 12.2317 16.0058 12.451 15.7864C12.6697 15.5678 12.779 15.2966 12.779 14.9729V12.6877H15.0642C15.3879 12.6877 15.6595 12.578 15.8789 12.3586C16.0975 12.14 16.2068 11.8688 16.2068 11.5451C16.2068 11.2213 16.0975 10.9498 15.8789 10.7304C15.6595 10.5118 15.3879 10.4024 15.0642 10.4024H12.779V8.11722C12.779 7.79348 12.6697 7.52192 12.451 7.30254C12.2317 7.08392 11.9601 6.97461 11.6364 6.97461C11.3126 6.97461 11.0411 7.08392 10.8217 7.30254C10.6031 7.52192 10.4938 7.79348 10.4938 8.11722V10.4024H8.20853C7.88479 10.4024 7.61361 10.5118 7.39499 10.7304C7.17561 10.9498 7.06592 11.2213 7.06592 11.5451C7.06592 11.8688 7.17561 12.14 7.39499 12.3586C7.61361 12.578 7.88479 12.6877 8.20853 12.6877H10.4938V14.9729C10.4938 15.2966 10.6031 15.5678 10.8217 15.7864Z" fill="#0F666D"/>
</g>
</g>
</svg>
