<svg width="417" height="74" viewBox="0 0 417 74" fill="none" xmlns="http://www.w3.org/2000/svg">
<rect x="0.5" width="416" height="74" rx="10" fill="#0F666D"/>
<path d="M167.112 47.71C165.712 47.71 164.452 47.47 163.332 46.99C162.212 46.49 161.332 45.79 160.692 44.89C160.052 43.99 159.732 42.94 159.732 41.74H163.392C163.472 42.64 163.822 43.38 164.442 43.96C165.082 44.54 165.972 44.83 167.112 44.83C168.292 44.83 169.212 44.55 169.872 43.99C170.532 43.41 170.862 42.67 170.862 41.77C170.862 41.07 170.652 40.5 170.232 40.06C169.832 39.62 169.322 39.28 168.702 39.04C168.102 38.8 167.262 38.54 166.182 38.26C164.822 37.9 163.712 37.54 162.852 37.18C162.012 36.8 161.292 36.22 160.692 35.44C160.092 34.66 159.792 33.62 159.792 32.32C159.792 31.12 160.092 30.07 160.692 29.17C161.292 28.27 162.132 27.58 163.212 27.1C164.292 26.62 165.542 26.38 166.962 26.38C168.982 26.38 170.632 26.89 171.912 27.91C173.212 28.91 173.932 30.29 174.072 32.05H170.292C170.232 31.29 169.872 30.64 169.212 30.1C168.552 29.56 167.682 29.29 166.602 29.29C165.622 29.29 164.822 29.54 164.202 30.04C163.582 30.54 163.272 31.26 163.272 32.2C163.272 32.84 163.462 33.37 163.842 33.79C164.242 34.19 164.742 34.51 165.342 34.75C165.942 34.99 166.762 35.25 167.802 35.53C169.182 35.91 170.302 36.29 171.162 36.67C172.042 37.05 172.782 37.64 173.382 38.44C174.002 39.22 174.312 40.27 174.312 41.59C174.312 42.65 174.022 43.65 173.442 44.59C172.882 45.53 172.052 46.29 170.952 46.87C169.872 47.43 168.592 47.71 167.112 47.71ZM180.088 28.78C179.468 28.78 178.948 28.57 178.528 28.15C178.108 27.73 177.898 27.21 177.898 26.59C177.898 25.97 178.108 25.45 178.528 25.03C178.948 24.61 179.468 24.4 180.088 24.4C180.688 24.4 181.198 24.61 181.618 25.03C182.038 25.45 182.248 25.97 182.248 26.59C182.248 27.21 182.038 27.73 181.618 28.15C181.198 28.57 180.688 28.78 180.088 28.78ZM181.768 30.97V47.5H178.348V30.97H181.768ZM192.918 30.7C194.198 30.7 195.328 30.96 196.308 31.48C197.308 31.98 198.088 32.61 198.648 33.37V30.97H202.098V47.77C202.098 49.29 201.778 50.64 201.138 51.82C200.498 53.02 199.568 53.96 198.348 54.64C197.148 55.32 195.708 55.66 194.028 55.66C191.788 55.66 189.928 55.13 188.448 54.07C186.968 53.03 186.128 51.61 185.928 49.81H189.318C189.578 50.67 190.128 51.36 190.968 51.88C191.828 52.42 192.848 52.69 194.028 52.69C195.408 52.69 196.518 52.27 197.358 51.43C198.218 50.59 198.648 49.37 198.648 47.77V45.01C198.068 45.79 197.278 46.45 196.278 46.99C195.298 47.51 194.178 47.77 192.918 47.77C191.478 47.77 190.158 47.41 188.958 46.69C187.778 45.95 186.838 44.93 186.138 43.63C185.458 42.31 185.118 40.82 185.118 39.16C185.118 37.5 185.458 36.03 186.138 34.75C186.838 33.47 187.778 32.48 188.958 31.78C190.158 31.06 191.478 30.7 192.918 30.7ZM198.648 39.22C198.648 38.08 198.408 37.09 197.928 36.25C197.468 35.41 196.858 34.77 196.098 34.33C195.338 33.89 194.518 33.67 193.638 33.67C192.758 33.67 191.938 33.89 191.178 34.33C190.418 34.75 189.798 35.38 189.318 36.22C188.858 37.04 188.628 38.02 188.628 39.16C188.628 40.3 188.858 41.3 189.318 42.16C189.798 43.02 190.418 43.68 191.178 44.14C191.958 44.58 192.778 44.8 193.638 44.8C194.518 44.8 195.338 44.58 196.098 44.14C196.858 43.7 197.468 43.06 197.928 42.22C198.408 41.36 198.648 40.36 198.648 39.22ZM214.93 30.7C216.23 30.7 217.39 30.97 218.41 31.51C219.45 32.05 220.26 32.85 220.84 33.91C221.42 34.97 221.71 36.25 221.71 37.75V47.5H218.32V38.26C218.32 36.78 217.95 35.65 217.21 34.87C216.47 34.07 215.46 33.67 214.18 33.67C212.9 33.67 211.88 34.07 211.12 34.87C210.38 35.65 210.01 36.78 210.01 38.26V47.5H206.59V30.97H210.01V32.86C210.57 32.18 211.28 31.65 212.14 31.27C213.02 30.89 213.95 30.7 214.93 30.7ZM237.285 26.65V47.5H233.865V26.65H237.285ZM250.115 30.7C251.415 30.7 252.575 30.97 253.595 31.51C254.635 32.05 255.445 32.85 256.025 33.91C256.605 34.97 256.895 36.25 256.895 37.75V47.5H253.505V38.26C253.505 36.78 253.135 35.65 252.395 34.87C251.655 34.07 250.645 33.67 249.365 33.67C248.085 33.67 247.065 34.07 246.305 34.87C245.565 35.65 245.195 36.78 245.195 38.26V47.5H241.775V30.97H245.195V32.86C245.755 32.18 246.465 31.65 247.325 31.27C248.205 30.89 249.135 30.7 250.115 30.7Z" fill="white"/>
</svg>
