<svg width="24" height="25" viewBox="0 0 24 25" fill="none" xmlns="http://www.w3.org/2000/svg">
<g id="Frame 96" clip-path="url(#clip0_623_1415)">
<path id="Vector" d="M12.78 11.18L14.34 6.68H14.46L16.02 11.18H12.78ZM7.2 19.7C6.54 19.7 5.9748 19.4648 5.5044 18.9944C5.034 18.524 4.7992 17.9592 4.8 17.3V2.9C4.8 2.24 5.0352 1.6748 5.5056 1.2044C5.976 0.734002 6.5408 0.499202 7.2 0.500002H21.6C22.26 0.500002 22.8252 0.735202 23.2956 1.2056C23.766 1.676 24.0008 2.2408 24 2.9V17.3C24 17.96 23.7648 18.5252 23.2944 18.9956C22.824 19.466 22.2592 19.7008 21.6 19.7H7.2ZM2.4 24.5C1.74 24.5 1.1748 24.2648 0.704402 23.7944C0.234002 23.324 -0.000797963 22.7592 2.03735e-06 22.1V6.5C2.03735e-06 6.16 0.115202 5.8748 0.345602 5.6444C0.576002 5.414 0.860802 5.2992 1.2 5.3C1.54 5.3 1.8252 5.4152 2.0556 5.6456C2.286 5.876 2.4008 6.1608 2.4 6.5V22.1H18C18.34 22.1 18.6252 22.2152 18.8556 22.4456C19.086 22.676 19.2008 22.9608 19.2 23.3C19.2 23.64 19.0848 23.9252 18.8544 24.1556C18.624 24.386 18.3392 24.5008 18 24.5H2.4ZM10.62 15.5C10.82 15.5 11 15.4448 11.16 15.3344C11.32 15.224 11.43 15.0792 11.49 14.9L12.24 12.74H16.62L17.37 14.93C17.43 15.09 17.5352 15.2248 17.6856 15.3344C17.836 15.444 18.0008 15.4992 18.18 15.5C18.48 15.5 18.72 15.38 18.9 15.14C19.08 14.9 19.12 14.64 19.02 14.36L15.69 5.6C15.59 5.32 15.42 5.1 15.18 4.94C14.94 4.78 14.68 4.7 14.4 4.7C14.12 4.7 13.86 4.78 13.62 4.94C13.38 5.1 13.21 5.32 13.11 5.6L9.81 14.3C9.71 14.58 9.7452 14.85 9.9156 15.11C10.086 15.37 10.3208 15.5 10.62 15.5Z" fill="#282828"/>
</g>
<defs>
<clipPath id="clip0_623_1415">
<rect width="24" height="24" fill="white" transform="translate(0 0.5)"/>
</clipPath>
</defs>
</svg>
