<svg width="24" height="24" viewBox="0 0 24 24" fill="none" xmlns="http://www.w3.org/2000/svg">
<g id="Frame 82">
<path id="Vector" d="M3.70574 9.85L8.59058 14.7348L19.7078 3.61762C20.1195 3.20588 20.6436 3 21.2799 3C21.9163 3 22.4403 3.20588 22.8521 3.61762C23.2638 4.02937 23.4794 4.54368 23.4989 5.16055C23.5168 5.77893 23.32 6.29399 22.9082 6.70573L10.1627 19.4512C9.75096 19.863 9.22691 20.0688 8.59058 20.0688C7.95424 20.0688 7.43019 19.863 7.01844 19.4512L0.617623 13.0504C0.205874 12.6387 0 12.1146 0 11.4783C0 10.8419 0.205874 10.3179 0.617623 9.90614C1.02937 9.49439 1.54443 9.27954 2.1628 9.26157C2.77968 9.24211 3.29399 9.43825 3.70574 9.85Z" fill="#282828"/>
</g>
</svg>
