<svg width="903" height="1024" viewBox="0 0 903 1024" fill="none" xmlns="http://www.w3.org/2000/svg">
<path fill-rule="evenodd" clip-rule="evenodd" d="M344.109 1083.06C303.017 990.6 403.272 854.42 446.326 729.299C502.168 567.014 459.392 383.655 625.781 264.477C795.239 143.099 962.506 212.864 1093.07 266.06C1201.17 310.103 1255.07 403.62 1263.88 524.457C1273.19 652.219 1256.05 797.481 1141.75 934.193C1018.15 1082.04 837.606 1202.86 670.642 1234.02C510.736 1263.87 393.324 1193.79 344.109 1083.06Z" fill="#C5B582"/>
<path fill-rule="evenodd" clip-rule="evenodd" d="M615.932 -120.287C749.393 -163.387 895.725 -216.125 1015.21 -142.696C1142.15 -64.6925 1229.17 92.9917 1201.09 239.306C1176.26 368.654 1005.7 385.223 899.053 462.511C814.894 523.502 759.932 648.302 657.044 633.583C552.964 618.693 524.759 489.391 468.057 400.851C401.156 296.384 272.616 205.52 306.48 86.1782C342.093 -39.329 491.783 -80.1955 615.932 -120.287Z" fill="#C5B582"/>
<path fill-rule="evenodd" clip-rule="evenodd" d="M1126.76 837.107C1210.8 931.291 1156.55 1096.56 1055.08 1232.5C961.124 1358.37 798.346 1451.95 636.407 1493.99C497.863 1529.96 387.081 1486.34 298.745 1428.85C223.646 1379.98 212.191 1296.75 200.78 1210.5C183.145 1077.22 64.2694 927.556 216.976 810.848C369.625 694.183 527.643 826.338 697.042 831.227C846.744 835.548 1049.49 750.513 1126.76 837.107Z" fill="#0F666D"/>
</svg>
