<svg width="251" height="119" viewBox="0 0 251 119" fill="none" xmlns="http://www.w3.org/2000/svg">
<path d="M193.606 54.3899L145.886 6.65242C142.861 3.62628 137.945 3.62628 134.92 6.65242L87.1995 54.3899C84.1744 57.416 84.1744 62.3335 87.1995 65.3596L134.92 113.097C137.945 116.123 142.861 116.123 145.886 113.097L193.606 65.3596C196.556 62.3335 196.556 57.416 193.606 54.3899ZM144.373 98.7985C142.18 100.992 138.55 100.992 136.357 98.7985L101.417 63.8466C99.2242 61.6526 99.2242 58.0212 101.417 55.8273L136.357 20.8753C138.55 18.6813 142.18 18.6813 144.373 20.8753L179.313 55.8273C181.506 58.0212 181.506 61.6526 179.313 63.8466L144.373 98.7985Z" fill="#C5B582"/>
<path d="M164.641 94.1836L161.389 97.4367C162.523 96.3019 163.658 95.2427 164.641 94.1836Z" fill="#958E62"/>
<path d="M193.681 54.4643C187.026 47.8068 174.623 35.4753 174.623 35.4753C175.682 36.5344 176.741 37.5936 177.875 38.7284L174.623 35.4753C148.759 10.3583 138.55 18.4532 136.734 20.4202C136.583 20.4959 136.432 20.6472 136.356 20.7985L101.341 55.8261C99.148 58.02 99.148 61.6514 101.341 63.8454L136.356 98.873C138.55 101.067 142.18 101.067 144.373 98.873L179.388 63.8454C181.43 61.8027 181.581 58.7009 179.917 56.4313C182.111 58.7766 188.841 69.2168 164.641 94.1068L193.53 65.2072C196.48 62.3323 196.782 57.5661 193.681 54.4643ZM168.876 62.7862L143.238 88.4328C141.65 90.0215 139.003 90.0215 137.34 88.4328L111.702 62.7862C110.114 61.1975 110.114 58.5496 111.702 56.8853L137.34 31.2387C138.928 29.6499 141.575 29.6499 143.238 31.2387L168.876 56.8853C170.54 58.5496 170.54 61.1975 168.876 62.7862Z" fill="#958E62"/>
<path d="M122.441 34.5679L124.786 32.2227C123.954 33.0548 123.198 33.8114 122.441 34.5679Z" fill="#C5B582"/>
<path d="M115.106 77.6152C114.349 76.8587 113.517 76.1022 112.761 75.27L115.106 77.6152C136.205 98.1174 143.163 88.4337 143.163 88.4337L143.239 88.3581C141.424 90.0224 138.928 89.9468 137.34 88.3581L111.627 62.6358C111.627 62.6358 101.871 55.6757 122.441 34.5684L101.266 55.7514C99.0727 57.9453 98.9214 61.4254 101.19 63.695" fill="#C5B582"/>
<path d="M116.089 25.4894L119.341 22.2363C118.131 23.3711 117.072 24.4303 116.089 25.4894Z" fill="#023756"/>
<path d="M158.213 85.0277C157.456 85.7842 156.7 86.6164 155.868 87.3729L158.213 85.0277C179.086 64.0716 169.027 56.9602 169.027 56.9602L168.952 56.8845C170.616 58.7002 170.54 61.1968 168.952 62.7855L143.239 88.5077C143.239 88.5077 136.81 97.4349 117.601 79.9589L101.341 63.6933C101.341 63.6933 88.1067 54.2366 116.089 25.4883L87.1992 54.388C84.2497 57.3385 83.9472 62.1046 87.0479 65.2064C93.7031 71.8639 134.768 112.944 134.768 112.944C134.768 112.944 134.768 112.944 134.768 112.868L106.03 84.1198C104.971 83.0607 103.913 82.0015 102.778 80.8667L106.03 84.1198C131.063 108.48 141.499 101.596 143.768 99.4019C143.919 99.2505 144.071 99.0992 144.222 98.9479C149.138 94.1061 158.213 85.0277 158.213 85.0277Z" fill="#023756"/>
<path d="M106.03 84.1965L102.778 80.9434C103.913 82.0782 104.972 83.1373 106.03 84.1965Z" fill="#0F666D"/>
<path d="M193.379 65.4336L164.641 94.182C163.582 95.2411 162.523 96.3003 161.389 97.4351L164.641 94.182C188.841 69.292 182.186 58.8518 179.993 56.5065C179.842 56.3552 179.69 56.1282 179.539 55.9769C175.909 52.3456 170.01 46.5202 167.212 43.6454C167.439 43.8724 167.741 44.175 167.968 44.4019L165.624 42.0567C144.524 21.5545 137.566 31.2382 137.566 31.2382L137.491 31.3139C139.306 29.6495 141.801 29.7251 143.39 31.3139L169.103 57.0361C169.103 57.0361 177.8 63.3153 161.237 81.9261L144.297 98.8725C144.297 98.8725 134.844 112.112 106.105 84.1201L134.995 113.02C137.944 115.97 142.709 116.273 145.81 113.171C152.313 106.589 193.454 65.4336 193.379 65.4336Z" fill="#0F666D"/>
<path d="M165.549 42.0566C165.549 42.0566 166.154 42.6619 167.137 43.6454C166.608 43.1158 166.078 42.5862 165.549 42.0566Z" fill="#0F666D"/>
<path d="M78.1487 35.0824L64.2801 92.4622H57.6338L42.4802 42.1718L27.6368 92.4622H21.0791L6.28 35.0824L1.00727 34.019V30.1199H21.788V34.019L16.3824 34.5507C16.0574 34.6098 15.8064 34.7723 15.6291 35.0381C15.4519 35.2745 15.3633 35.5551 15.3633 35.88C15.3633 35.9686 15.3633 36.0572 15.3633 36.1459C15.3928 36.2049 15.4224 36.2788 15.4519 36.3674L26.2632 77.3086L40.4863 30.1199H47.4871L62.1089 78.7708L72.167 36.3674C72.1965 36.3083 72.2113 36.2049 72.2113 36.0572C72.2113 35.7028 72.0932 35.3778 71.8568 35.0824C71.6205 34.7871 71.2956 34.6098 70.8821 34.5507L65.1662 34.019V30.1199H83.6873V34.019L78.1487 35.0824Z" fill="#0F666D"/>
<path d="M247.232 73.0107C247.232 75.4624 246.877 77.6188 246.168 79.4797C245.489 81.3112 244.558 82.8915 243.377 84.2208C242.195 85.55 240.822 86.6577 239.256 87.5439C237.72 88.4006 236.095 89.0947 234.382 89.6264C232.698 90.1286 230.97 90.4831 229.198 90.6898C227.455 90.8966 225.786 91 224.191 91H198.802V87.1008L203.588 86.7464C204.238 86.6873 204.71 86.451 205.006 86.0374C205.33 85.6239 205.493 85.1956 205.493 84.7525V36.3674C205.493 35.9243 205.33 35.496 205.006 35.0824C204.71 34.6689 204.238 34.4326 203.588 34.3735L198.802 34.019V30.1199H223.083C226.687 30.1199 229.774 30.4596 232.344 31.139C234.943 31.7888 237.07 32.7489 238.724 34.019C240.379 35.2892 241.59 36.8253 242.358 38.6271C243.126 40.429 243.51 42.4672 243.51 44.7417C243.51 47.0163 243.081 48.9511 242.225 50.5462C241.368 52.1413 240.29 53.4853 238.99 54.5783C237.691 55.6712 236.273 56.5426 234.737 57.1925C233.201 57.8423 231.768 58.3445 230.439 58.699C232.477 58.699 234.486 58.9501 236.465 59.4522C238.473 59.9248 240.275 60.7224 241.87 61.8449C243.465 62.9674 244.75 64.4443 245.725 66.2758C246.73 68.1072 247.232 70.3522 247.232 73.0107ZM237.351 73.7639C237.351 69.6284 236.125 66.6007 233.673 64.6806C231.221 62.7606 227.573 61.8006 222.729 61.8006C221.991 61.8006 221.163 61.8301 220.248 61.8892C219.362 61.9483 218.52 62.0074 217.722 62.0664C216.925 62.1255 216.23 62.1846 215.64 62.2437C215.049 62.3027 214.694 62.3323 214.576 62.3323V86.3033C215.315 86.3624 216.038 86.4067 216.747 86.4362C217.338 86.4953 217.944 86.5396 218.564 86.5691C219.214 86.5691 219.76 86.5691 220.203 86.5691C223.394 86.5691 226.067 86.3033 228.223 85.7716C230.409 85.2399 232.182 84.4423 233.54 83.3789C234.899 82.3155 235.874 80.9862 236.465 79.3911C237.055 77.796 237.351 75.9203 237.351 73.7639ZM233.718 45.3621C233.718 41.7878 232.566 39.0555 230.261 37.165C227.957 35.2449 224.457 34.2849 219.76 34.2849C219.288 34.2849 218.771 34.2997 218.21 34.3292C217.678 34.3587 217.161 34.3883 216.659 34.4178C216.186 34.4474 215.758 34.4769 215.374 34.5064C214.99 34.536 214.724 34.5507 214.576 34.5507V57.5026C214.99 57.5322 215.403 57.5469 215.817 57.5469C216.171 57.5765 216.526 57.5913 216.88 57.5913H217.855C220.809 57.5913 223.29 57.3254 225.299 56.7937C227.337 56.2325 228.977 55.4349 230.217 54.401C231.458 53.3672 232.344 52.097 232.876 50.5905C233.437 49.0545 233.718 47.3116 233.718 45.3621Z" fill="#0F666D"/>
</svg>
